<svg xmlns="http://www.w3.org/2000/svg" viewBox="0 0 24 24"><defs><style>.cls-1{fill:#2a2a2a;}</style></defs><title>Icon_Help</title><g id="Layer_2" data-name="Layer 2"><g id="Artwork"><path class="cls-1" d="M19,0H5A5,5,0,0,0,0,5V19a5,5,0,0,0,5,5H19a5,5,0,0,0,5-5V5A5,5,0,0,0,19,0ZM12.92,18a1.79,1.79,0,0,1-2.56,0,1.82,1.82,0,0,1,0-2.55,1.79,1.79,0,0,1,2.56,0,1.82,1.82,0,0,1,0,2.55Zm3.21-7.29a3.63,3.63,0,0,1-.86,1,9.42,9.42,0,0,1-1,.65,5.55,5.55,0,0,0-.73.47.75.75,0,0,0-.32.55v.16a.61.61,0,0,1-.62.62H10.7a.6.6,0,0,1-.44-.18.58.58,0,0,1-.19-.44v-.26a2.54,2.54,0,0,1,.68-1.78,6.43,6.43,0,0,1,1.41-1l.05,0a4.3,4.3,0,0,0,.94-.63.91.91,0,0,0,.34-.7,1.08,1.08,0,0,0-.6-.94,2.26,2.26,0,0,0-2.4,0,5.41,5.41,0,0,0-1,.94.6.6,0,0,1-.41.25.56.56,0,0,1-.46-.12L7.54,8.37A.62.62,0,0,1,7.29,8a.63.63,0,0,1,.12-.46A6.07,6.07,0,0,1,9.26,5.76a5.42,5.42,0,0,1,2.64-.62,5,5,0,0,1,3.89,2,3.47,3.47,0,0,1,.7,2.07A3.09,3.09,0,0,1,16.13,10.67Z"/></g></g></svg>