<svg xmlns="http://www.w3.org/2000/svg" viewBox="0 0 24 24"><defs><style>.cls-1{fill:#2a2a2a;}</style></defs><title>Icon_Account</title><g id="Layer_2" data-name="Layer 2"><g id="Artwork"><path class="cls-1" d="M19,0H5A5,5,0,0,0,0,5V19a5,5,0,0,0,5,5H19a5,5,0,0,0,5-5V5A5,5,0,0,0,19,0ZM9.42,6.76a3.83,3.83,0,0,1,1.37-1.37,3.61,3.61,0,0,1,1.88-.51,3.66,3.66,0,0,1,1.88.51,3.8,3.8,0,0,1,1.36,1.37,3.72,3.72,0,0,1,0,3.76,3.8,3.8,0,0,1-1.36,1.37,3.66,3.66,0,0,1-1.88.51,3.61,3.61,0,0,1-1.88-.51,3.83,3.83,0,0,1-1.37-1.37,3.72,3.72,0,0,1,0-3.76ZM18.51,17a1.23,1.23,0,0,1-1.25,1.25H8.07A1.25,1.25,0,0,1,6.82,17v-.68a3.45,3.45,0,0,1,.47-1.75,3.49,3.49,0,0,1,1.28-1.28,3.45,3.45,0,0,1,1.75-.47,2.84,2.84,0,0,1,.89.19l.6.15a4.49,4.49,0,0,0,.86.08,4.57,4.57,0,0,0,.86-.08l.6-.15a2.74,2.74,0,0,1,.88-.19,3.45,3.45,0,0,1,1.75.47A3.49,3.49,0,0,1,18,14.56a3.45,3.45,0,0,1,.47,1.75Z"/></g></g></svg>