<svg xmlns="http://www.w3.org/2000/svg" viewBox="0 0 200 57.22"><defs><style>.cls-1{fill:#00aeef;}</style></defs><title>NBCU_Logo_Tagline</title><g id="Layer_2" data-name="Layer 2"><g id="Artwork"><g id="_Group_" data-name="&lt;Group&gt;"><path id="_Compound_Path_" data-name="&lt;Compound Path&gt;" d="M198.78,21.31c-.4-.38-.45-.64-.45-1.39V0h-6.12V.3l1.21,1.25c.39.39.45.63.45,1.38v17c0,.75-.06,1-.45,1.39l-1.21,1.24v.3H200v-.3Zm-13.86-4.94a9.47,9.47,0,0,1-1.87.23c-2,.12-2.69.85-2.69,1.84A1.56,1.56,0,0,0,182,20.08a2.67,2.67,0,0,0,2.91-2.72Zm4.87,4.94L191,22.55v.3h-6v-2a4.84,4.84,0,0,1-4.49,2.39c-2.57,0-4.6-1.67-4.6-4.23,0-3.21,2.22-4.7,7-4.81,1.56,0,2-.36,2-1.17s-.71-1.48-2.58-1.48a4.8,4.8,0,0,0-3.63,1.52l-2.32-2.78a8.75,8.75,0,0,1,6.39-2.24c4.58,0,6.56,1.9,6.56,5.62v6.21c0,.75.07,1,.45,1.39M169.53,14c-1.92-.32-3.45-.38-3.45-1.5,0-.68.57-1.12,1.87-1.12,1.76,0,3.4.58,4,1.92l.31.09,1.4-5.52-.3-.12a3,3,0,0,1-2,.76c-1,0-1.88-.39-3.73-.39-3.17,0-6.15,1.15-6.15,4.74,0,2.8,2.23,3.88,4.37,4.25s3.61.39,3.61,1.6c0,.7-.6,1.21-1.9,1.21a7.59,7.59,0,0,1-4.81-1.67l-2.07,3.09a10.62,10.62,0,0,0,6.57,2c4.17,0,6.75-1.85,6.75-5.07,0-2.78-2.35-3.86-4.52-4.23M154,11.29V8.37h-6v.29l1.23,1.24c.38.39.45.63.45,1.39v8.63c0,.75-.07,1-.45,1.39L148,22.55v.3h7.8v-.3l-1.23-1.24c-.37-.38-.43-.64-.43-1.39V15.54c0-2.17,1.07-3.34,2.79-3.34a3.13,3.13,0,0,1,2.14.84l1.16-4.53a4.1,4.1,0,0,0-1.87-.42,4.66,4.66,0,0,0-4.34,3.2m-12.22,3c-.08-1.54-.9-2.8-2.65-2.8a2.88,2.88,0,0,0-2.93,2.8Zm4.54,1.34c0,.5,0,1-.06,1.29h-10c.19,1.42,1.44,2.71,3.64,2.71a4.06,4.06,0,0,0,3.07-1.2l2.47,2.95a8.91,8.91,0,0,1-5.93,1.91c-4.78,0-7.82-2.9-7.82-7.43s2.92-7.75,7.72-7.75,6.92,3.16,6.92,7.52M132.07,8.37h-5.55l-2.58,7h-.06l-2.95-7h-5.48V8.7a7.34,7.34,0,0,1,2.26,2.89l5.92,11.93h.31l5.88-11.93a6.86,6.86,0,0,1,2.25-2.89ZM111.46,6.22a2.58,2.58,0,0,0,2.62-2.63A2.57,2.57,0,0,0,111.46,1a2.63,2.63,0,1,0,0,5.25m2.26,13.7V8.37h-6.13v.29l1.22,1.24c.39.39.45.63.45,1.39v8.63c0,.75-.06,1-.45,1.39l-1.22,1.24v.3h7.8v-.3l-1.22-1.24c-.38-.38-.45-.64-.45-1.39m-9.47,0v-6.1c0-3.62-1.79-5.73-4.88-5.73A5.23,5.23,0,0,0,94.57,11V8.37h-6v.29L89.78,9.9c.39.39.45.63.45,1.39v8.63c0,.75-.06,1-.45,1.39l-1.22,1.24v.3h7.8v-.3l-1.23-1.24c-.38-.38-.44-.64-.44-1.39V15.06c0-1.71.84-3.07,2.74-3.07,1.6,0,2.35,1.17,2.35,2.84v8h6.13v-.3l-1.22-1.24c-.39-.38-.44-.64-.44-1.39M79.17,2l1.22,1.23a1.38,1.38,0,0,1,.46,1V14.68c0,3-1.53,4.53-4.21,4.53s-4.25-1.42-4.25-4.53V4.29a1.33,1.33,0,0,1,.44-1L74.05,2v-.3H66V2l1.22,1.23a1.31,1.31,0,0,1,.45,1V14.55c0,5.86,3.71,8.74,9,8.74s9-2.88,9-8.74V4.29a1.31,1.31,0,0,1,.45-1L87.26,2v-.3H79.17ZM57,19.26c-3.59,0-6-2.75-6-6.87,0-4.38,2.71-7,6.26-7C60,5.41,61.4,7,61.78,8.25l.32.09,1.79-7.2L63.59,1a3,3,0,0,1-2.07.76c-1,0-2.63-.39-4.56-.39-6.26,0-11,4.16-11,11s4.77,10.93,10.94,10.93a10.61,10.61,0,0,0,8-3.18L62,16.76a6,6,0,0,1-5,2.5M39.28,16.37c0-1.88-1.12-2.6-3.36-2.6H30.75v5.16h5.17c1.91,0,3.36-.66,3.36-2.56m-8.53-6.28H36c1.61,0,2.52-.77,2.52-2.24S37.75,5.58,36,5.58H30.75ZM44.1,16.85c0,4.11-2.89,6-7.61,6H24.31v-.3l1.22-1.23a1.29,1.29,0,0,0,.45-1v-16a1.28,1.28,0,0,0-.45-1L24.31,2v-.3H36.6c4.44,0,6.64,2.12,6.64,5.71a4.55,4.55,0,0,1-3.76,4.32v.05c2.84.49,4.62,2.18,4.62,5.05M14.88,1.72h7.7V2L21.36,3.26a1.31,1.31,0,0,0-.45,1V23.68h-.29L6,10.29v10a1.28,1.28,0,0,0,.44,1L7.7,22.55v.3H0v-.3l1.22-1.24a1.29,1.29,0,0,0,.45-1V.76H2l14.6,13.35V4.29a1.28,1.28,0,0,0-.45-1L14.88,2Z"/></g><g id="_Group_2" data-name="&lt;Group&gt;"><path id="_Compound_Path_2" data-name="&lt;Compound Path&gt;" class="cls-1" d="M162.25,51.18h3.87V47.31h-3.87Zm-15.37,0h3.93V43.44c0-2.41,1.23-3.41,2.7-3.41,1.7,0,2.58,1.12,2.58,3v8.16h4V42.5c0-3.64-2.06-5.81-5.4-5.81a5,5,0,0,0-3.93,1.88V37h-3.87Zm-9.56-3.29A3.74,3.74,0,0,1,133.51,44a3.73,3.73,0,1,1,3.81,3.87Zm-.76,3.58a5.52,5.52,0,0,0,4.28-1.88v1.59h3.87V37h-3.87v1.41a5.72,5.72,0,0,0-4.22-1.7c-3.23,0-6.92,2.35-6.92,7.39A7.05,7.05,0,0,0,136.56,51.47Zm-14.37,0A7.3,7.3,0,0,0,129.05,47l-3.46-1.46a3.69,3.69,0,1,1,0-2.82l3.46-1.46a7.21,7.21,0,0,0-6.86-4.52,7.39,7.39,0,0,0,0,14.78Zm-21.76,0a4.88,4.88,0,0,0,3.93-1.88v1.59h3.87V37h-3.87v7.75c0,2.4-1.23,3.4-2.7,3.4-1.76,0-2.64-1.12-2.64-3V37H95.1v8.68C95.1,49.3,97.09,51.47,100.43,51.47Zm-14.31-3.7a3.69,3.69,0,0,1,0-7.38,3.69,3.69,0,0,1,0,7.38Zm0,3.7a7.39,7.39,0,1,0-7.39-7.39A7.3,7.3,0,0,0,86.12,51.47ZM67.3,57.22h3.93l8-20.24H75.21l-3.16,8.51L68.65,37H64.54L70.11,50.3ZM48.94,42.32a3.72,3.72,0,0,1,3.46-2.23,3.34,3.34,0,0,1,3.4,2.23Zm3.58,9.15a7.29,7.29,0,0,0,6.39-3.4L55.8,46.25a3.71,3.71,0,0,1-3.28,1.82,3.58,3.58,0,0,1-3.76-2.58h11V44a7.15,7.15,0,0,0-7.33-7.33A7.36,7.36,0,0,0,45,44.08a7.5,7.5,0,0,0,7.51,7.39Zm-17-.29H39.5V44.49c0-2.64.88-3.75,3-3.75H44.6V37H43.37a4,4,0,0,0-3.93,2.35V37H35.57ZM23.08,42.32a3.71,3.71,0,0,1,3.46-2.23,3.34,3.34,0,0,1,3.4,2.23Zm3.58,9.15a7.29,7.29,0,0,0,6.39-3.4l-3.11-1.82a3.71,3.71,0,0,1-3.28,1.82,3.56,3.56,0,0,1-3.76-2.58h11V44a7.15,7.15,0,0,0-7.33-7.33,7.35,7.35,0,0,0-7.39,7.39A7.22,7.22,0,0,0,25,51.29,7.32,7.32,0,0,0,26.66,51.47Zm-25-.29H5.6V42.91h7.86v8.27h3.93V30.94H13.46v8.21H5.6V30.94H1.67Z"/></g></g></g></svg>