<svg xmlns="http://www.w3.org/2000/svg" viewBox="0 0 250.68 19.07"><defs><style>.cls-1{fill:#400093;}</style></defs><title>NBCU_Careers_Logo_Purple</title><g id="Layer_2" data-name="Layer 2"><g id="Artwork"><path class="cls-1" d="M12,1.39h6.21v.24l-1,1a1.06,1.06,0,0,0-.36.83V19.07h-.24L4.87,8.29v8.06a1,1,0,0,0,.35.82l1,1v.24H0v-.24l1-1a1,1,0,0,0,.36-.82V.61h.22L13.33,11.36V3.46A1,1,0,0,0,13,2.63l-1-1ZM35.53,13.58c0,3.31-2.33,4.83-6.14,4.83h-9.8v-.24l1-1a1,1,0,0,0,.36-.83V3.46a1,1,0,0,0-.36-.83l-1-1V1.39h9.89c3.58,0,5.36,1.7,5.36,4.6a3.67,3.67,0,0,1-3,3.48v0c2.29.39,3.73,1.75,3.73,4.07M24.77,8.13H29c1.3,0,2-.62,2-1.81S30.41,4.5,29,4.5H24.77Zm6.88,5c0-1.5-.91-2.09-2.72-2.09H24.77v4.16h4.16c1.54,0,2.72-.53,2.72-2.07M46,15.52c-2.89,0-4.86-2.22-4.86-5.54,0-3.52,2.18-5.62,5-5.62a3.5,3.5,0,0,1,3.64,2.29l.26.07L51.47.91l-.24-.1a2.45,2.45,0,0,1-1.67.61c-.83,0-2.12-.32-3.67-.32-5,0-8.9,3.36-8.9,8.86s3.84,8.8,8.82,8.8a8.53,8.53,0,0,0,6.41-2.56L50,13.5a4.82,4.82,0,0,1-4,2M63.78,1.64l1,1a1.08,1.08,0,0,1,.37.83v8.37c0,2.44-1.23,3.64-3.39,3.64s-3.43-1.14-3.43-3.64V3.46a1,1,0,0,1,.37-.83l1-1V1.4H53.19v.24l1,1a1,1,0,0,1,.36.83v8.27c0,4.71,3,7,7.21,7s7.22-2.32,7.22-7V3.46a1,1,0,0,1,.36-.83l1-1V1.4H63.78ZM84,16.05V11.14c0-2.92-1.45-4.62-3.94-4.62a4.21,4.21,0,0,0-3.86,2.31V6.74H71.35V7l1,1c.31.31.36.51.36,1.12v7c0,.61,0,.81-.36,1.12l-1,1v.24h6.28v-.24l-1-1c-.31-.31-.36-.51-.36-1.12V12.13c0-1.38.68-2.47,2.21-2.47,1.29,0,1.89.94,1.89,2.29v6.46h4.94v-.24l-1-1c-.31-.31-.35-.51-.35-1.12m7.62,0V6.74H86.68V7l1,1c.31.31.36.51.36,1.12v7c0,.61,0,.81-.36,1.12l-1,1v.24H93v-.24l-1-1c-.31-.31-.37-.51-.37-1.12M89.8,5a2.07,2.07,0,0,0,2.1-2.12A2.06,2.06,0,0,0,89.8.78,2.12,2.12,0,1,0,89.8,5m16.6,1.73h-4.48l-2.07,5.64h-.06L97.42,6.74H93V7a6,6,0,0,1,1.82,2.33l4.76,9.6h.26l4.73-9.6A5.57,5.57,0,0,1,106.4,7Zm11.48,5.84c0,.41,0,.79,0,1h-8.07a2.69,2.69,0,0,0,2.93,2.19,3.24,3.24,0,0,0,2.47-1l2,2.38a7.2,7.2,0,0,1-4.78,1.53c-3.85,0-6.3-2.34-6.3-6a5.86,5.86,0,0,1,6.22-6.24c3.87,0,5.57,2.55,5.57,6.05m-3.65-1.08a2.1,2.1,0,0,0-2.14-2.25,2.32,2.32,0,0,0-2.36,2.25Zm9.84-2.4V6.74h-4.85V7l1,1c.31.31.36.51.36,1.12v7c0,.61,0,.81-.36,1.12l-1,1v.24h6.29v-.24l-1-1c-.3-.31-.35-.51-.35-1.12V12.52c0-1.75.86-2.69,2.24-2.69a2.51,2.51,0,0,1,1.73.68l.94-3.65a3.33,3.33,0,0,0-1.51-.34,3.76,3.76,0,0,0-3.5,2.58m12.5,2.16C135,11,133.8,11,133.8,10.05c0-.54.45-.9,1.5-.9,1.42,0,2.74.47,3.23,1.55l.25.07,1.13-4.45-.24-.09a2.4,2.4,0,0,1-1.58.61c-.79,0-1.52-.31-3-.31-2.56,0-5,.92-5,3.81,0,2.26,1.8,3.13,3.52,3.42s2.91.33,2.91,1.3c0,.56-.49,1-1.53,1a6.1,6.1,0,0,1-3.87-1.34l-1.67,2.49a8.59,8.59,0,0,0,5.29,1.57c3.36,0,5.44-1.48,5.44-4.08,0-2.24-1.9-3.11-3.65-3.41m16.33,5.91,1,1v.24H149V16.83a3.9,3.9,0,0,1-3.62,1.92,3.43,3.43,0,0,1-3.7-3.4c0-2.59,1.78-3.79,5.67-3.87,1.25,0,1.58-.3,1.58-1s-.57-1.19-2.08-1.19A3.89,3.89,0,0,0,144,10.56L142.1,8.32a7.07,7.07,0,0,1,5.15-1.8c3.69,0,5.29,1.53,5.29,4.52v5c0,.61.05.81.36,1.12m-3.93-4a6.7,6.7,0,0,1-1.5.19c-1.61.1-2.17.69-2.17,1.49a1.25,1.25,0,0,0,1.33,1.31A2.15,2.15,0,0,0,149,14Zm11.17,4c-.32-.31-.37-.51-.37-1.12V0h-4.92V.24l1,1c.31.31.36.51.36,1.11V16.05c0,.61-.05.81-.36,1.12l-1,1v.24h6.27v-.24Z"/><path class="cls-1" d="M169.34,9.72c0-5.48,3.53-8.72,8.22-8.72,2.68,0,4.66,1.09,5.65,3l-1.67,1.38a4.15,4.15,0,0,0-4-2.3c-3.41,0-5.75,2.52-5.75,6.63s2.25,6.67,5.73,6.67a5.23,5.23,0,0,0,4.08-1.77L183,16.3a7.77,7.77,0,0,1-5.51,2.1C172.84,18.4,169.34,15.19,169.34,9.72Z"/><path class="cls-1" d="M185,15.16c0-2,1.57-3.26,4.81-3.43,1.31-.07,2.59-.29,2.59-1.5s-.9-1.76-2.64-1.76a4.22,4.22,0,0,0-3.07,1l-1.06-1.45A6.32,6.32,0,0,1,190,6.61c3.14,0,4.54,1.47,4.54,4.23v5.87c0,.55-.05.75.34,1.09l.24.21v.15h-2.66V16.44a4,4,0,0,1-3.72,2C186.6,18.4,185,17.19,185,15.16Zm7.4-1.42V12.6a4,4,0,0,1-2.2.6c-1.91.15-3,.7-3,1.86,0,1,.77,1.67,2.05,1.67A3,3,0,0,0,192.38,13.74Z"/><path class="cls-1" d="M198.37,6.85h2.08V9a3.55,3.55,0,0,1,3.41-2.36A3.36,3.36,0,0,1,205.6,7l-.75,2.32A2.43,2.43,0,0,0,203,8.71c-1.62,0-2.49,1.38-2.49,3.74v5.71h-2.18Z"/><path class="cls-1" d="M206.83,12.7c0-3.56,2.13-6.09,5.59-6.09s5.07,2.58,5.07,5.75a4.25,4.25,0,0,1-.07.8h-8.34a3.39,3.39,0,0,0,3.55,3.38,4.4,4.4,0,0,0,3.22-1.21L217,16.9a7,7,0,0,1-4.6,1.5C208.89,18.4,206.83,16,206.83,12.7Zm2.3-1.14h6.19c-.15-1.86-1.16-3.24-3-3.24S209.35,9.8,209.13,11.56Z"/><path class="cls-1" d="M219.36,12.7c0-3.56,2.12-6.09,5.58-6.09S230,9.19,230,12.36a4.25,4.25,0,0,1-.07.8H221.6a3.39,3.39,0,0,0,3.56,3.38,4.37,4.37,0,0,0,3.21-1.21l1.14,1.57a7,7,0,0,1-4.6,1.5C221.41,18.4,219.36,16,219.36,12.7Zm2.29-1.14h6.19c-.15-1.86-1.16-3.24-3-3.24S221.87,9.8,221.65,11.56Z"/><path class="cls-1" d="M232.87,6.85H235V9a3.54,3.54,0,0,1,3.41-2.36A3.36,3.36,0,0,1,240.1,7l-.75,2.32a2.45,2.45,0,0,0-1.82-.65c-1.62,0-2.49,1.38-2.49,3.74v5.71h-2.17Z"/><path class="cls-1" d="M241.33,17.07l1-1.64a6.23,6.23,0,0,0,3.79,1.18c1.28,0,2.42-.38,2.42-1.42,0-1.21-1.45-1.53-3.12-1.91-1.84-.44-3.65-1.21-3.65-3.36s1.69-3.31,4.52-3.31a5.13,5.13,0,0,1,4.23,1.66l-1.06,1.5a4.08,4.08,0,0,0-3.19-1.47c-1.33,0-2.35.53-2.35,1.54,0,1.21,1.48,1.48,3.14,1.87,1.87.43,3.65,1.25,3.65,3.38s-1.86,3.31-4.76,3.31A7.87,7.87,0,0,1,241.33,17.07Z"/></g></g></svg>